<svg width="46" height="66" viewBox="0 0 46 66" fill="none" xmlns="http://www.w3.org/2000/svg">
<path d="M28.7254 49.628V60.0219C28.7253 61.0982 27.853 61.9705 26.7767 61.9706H18.3321C17.2557 61.9706 16.3829 61.0983 16.3828 60.0219V49.628H28.7254Z" fill="white"/>
<path d="M21.2097 29.3099C21.9174 28.5744 23.0946 28.5745 23.8023 29.3099L40.4986 46.6605C41.5983 47.8035 40.7881 49.7071 39.202 49.7071H5.8101C4.22417 49.7068 3.41439 47.8034 4.51409 46.6605L21.2097 29.3099Z" fill="white"/>
<path d="M21.2097 16.9306C21.9174 16.1952 23.0946 16.1953 23.8023 16.9306L40.4986 34.2813C41.5983 35.4242 40.7881 37.3278 39.202 37.3278H5.8101C4.22417 37.3276 3.41439 35.4241 4.51409 34.2813L21.2097 16.9306Z" fill="white"/>
<path d="M21.2097 4.55155C21.9174 3.81611 23.0946 3.81619 23.8023 4.55155L40.4986 21.9022C41.5983 23.0451 40.7881 24.9487 39.202 24.9487H5.8101C4.22417 24.9485 3.41439 23.0451 4.51409 21.9022L21.2097 4.55155Z" fill="white"/>
<path d="M28.7254 49.628V60.0219C28.7253 61.0982 27.853 61.9705 26.7767 61.9706H18.3321C17.2557 61.9706 16.3829 61.0983 16.3828 60.0219V49.628H28.7254Z" stroke="white" stroke-width="8"/>
<path d="M21.2097 29.3099C21.9174 28.5744 23.0946 28.5745 23.8023 29.3099L40.4986 46.6605C41.5983 47.8035 40.7881 49.7071 39.202 49.7071H5.8101C4.22417 49.7068 3.41439 47.8034 4.51409 46.6605L21.2097 29.3099Z" stroke="white" stroke-width="8"/>
<path d="M21.2097 16.9306C21.9174 16.1952 23.0946 16.1953 23.8023 16.9306L40.4986 34.2813C41.5983 35.4242 40.7881 37.3278 39.202 37.3278H5.8101C4.22417 37.3276 3.41439 35.4241 4.51409 34.2813L21.2097 16.9306Z" stroke="white" stroke-width="8"/>
<path d="M21.2097 4.55155C21.9174 3.81611 23.0946 3.81619 23.8023 4.55155L40.4986 21.9022C41.5983 23.0451 40.7881 24.9487 39.202 24.9487H5.8101C4.22417 24.9485 3.41439 23.0451 4.51409 21.9022L21.2097 4.55155Z" stroke="white" stroke-width="8"/>
<path d="M28.7547 49.6574V60.0513C28.7546 61.1276 27.8823 61.9999 26.806 62H18.3614C17.285 62 16.4122 61.1277 16.4121 60.0513V49.6574H28.7547Z" fill="#244206"/>
<path d="M21.239 29.3393C21.9467 28.6038 23.1239 28.6039 23.8316 29.3393L40.5279 46.6899C41.6276 47.8329 40.8174 49.7365 39.2313 49.7365H5.83939C4.25346 49.7362 3.44368 47.8328 4.54339 46.6899L21.239 29.3393Z" fill="#126708" fill-opacity="0.9"/>
<path d="M21.239 16.96C21.9467 16.2246 23.1239 16.2247 23.8316 16.96L40.5279 34.3107C41.6276 35.4536 40.8174 37.3572 39.2313 37.3572H5.83939C4.25346 37.357 3.44368 35.4535 4.54339 34.3107L21.239 16.96Z" fill="#126708" fill-opacity="0.6"/>
<path d="M21.239 4.58094C21.9467 3.8455 23.1239 3.84558 23.8316 4.58094L40.5279 21.9316C41.6276 23.0745 40.8174 24.9781 39.2313 24.9781H5.83939C4.25346 24.9779 3.44368 23.0744 4.54339 21.9316L21.239 4.58094Z" fill="#126708" fill-opacity="0.4"/>
<path d="M28.7547 49.6574V60.0513C28.7546 61.1276 27.8823 61.9999 26.806 62H18.3614C17.285 62 16.4122 61.1277 16.4121 60.0513V49.6574H28.7547Z" stroke="#0D5F03" stroke-width="2"/>
<path d="M21.239 29.3393C21.9467 28.6038 23.1239 28.6039 23.8316 29.3393L40.5279 46.6899C41.6276 47.8329 40.8174 49.7365 39.2313 49.7365H5.83939C4.25346 49.7362 3.44368 47.8328 4.54339 46.6899L21.239 29.3393Z" stroke="#0D5F03" stroke-width="2"/>
<path d="M21.239 16.96C21.9467 16.2246 23.1239 16.2247 23.8316 16.96L40.5279 34.3107C41.6276 35.4536 40.8174 37.3572 39.2313 37.3572H5.83939C4.25346 37.357 3.44368 35.4535 4.54339 34.3107L21.239 16.96Z" stroke="#0D5F03" stroke-width="2"/>
<path d="M21.239 4.58094C21.9467 3.8455 23.1239 3.84558 23.8316 4.58094L40.5279 21.9316C41.6276 23.0745 40.8174 24.9781 39.2313 24.9781H5.83939C4.25346 24.9779 3.44368 23.0744 4.54339 21.9316L21.239 4.58094Z" stroke="#0D5F03" stroke-width="2"/>
</svg>
